<?xml version="1.0" standalone="no"?>
<!DOCTYPE svg PUBLIC "-//W3C//DTD SVG 20010904//EN"
 "http://www.w3.org/TR/2001/REC-SVG-20010904/DTD/svg10.dtd">
<svg version="1.0" xmlns="http://www.w3.org/2000/svg"
 width="260.000000pt" height="260.000000pt" viewBox="0 0 260.000000 260.000000"
 preserveAspectRatio="xMidYMid meet">
<metadata>
Created by potrace 1.11, written by Peter Selinger 2001-2013
</metadata>
<g transform="translate(0.000000,260.000000) scale(0.100000,-0.100000)"
fill="#000000" stroke="none">
<path d="M2243 2588 c1 -7 -2 -13 -8 -13 -17 -2 -109 -48 -123 -62 -7 -7 -20
-13 -28 -13 -8 0 -14 -4 -14 -10 0 -5 -3 -9 -7 -8 -13 3 -83 -33 -83 -43 0 -5
-3 -8 -7 -7 -9 2 -105 -44 -113 -53 -3 -4 -39 -23 -80 -44 -41 -21 -78 -43
-82 -49 -4 -6 -8 -7 -8 -2 0 5 -9 1 -20 -9 -20 -18 -21 -18 -18 14 1 18 8 37
15 43 7 6 10 14 7 19 -3 5 0 9 6 9 6 0 9 4 5 9 -3 6 5 33 19 61 13 27 21 48
16 45 -5 -3 -10 -1 -12 5 -2 6 -12 12 -23 15 -11 2 -36 9 -55 15 -19 6 -48 14
-65 17 -43 8 -60 11 -60 13 0 5 -128 12 -215 12 -122 0 -191 -5 -205 -14 -5
-3 -21 -6 -35 -6 -31 -1 -52 -6 -65 -14 -6 -3 -27 -9 -48 -13 -20 -4 -37 -12
-37 -19 0 -6 -5 -4 -10 4 -6 10 -10 11 -10 3 0 -7 -3 -12 -7 -12 -5 1 -22 -4
-40 -12 -31 -12 -31 -14 -17 -41 8 -15 11 -28 7 -28 -5 0 -2 -4 5 -9 7 -4 15
-14 16 -22 1 -8 13 -38 26 -66 19 -43 28 -52 47 -51 13 1 23 6 23 11 0 4 3 6
8 4 4 -3 18 0 32 6 33 13 50 18 80 22 14 2 27 4 30 5 3 1 8 2 12 1 5 0 8 2 8
7 0 4 12 7 28 8 15 0 49 3 75 6 26 2 50 1 53 -3 3 -5 16 -4 30 1 14 6 30 8 35
5 5 -4 41 -8 80 -10 38 -3 75 -8 82 -12 7 -4 20 -6 30 -5 9 2 17 -1 17 -7 0
-6 7 -8 15 -5 8 4 22 1 30 -6 8 -7 15 -9 15 -5 0 4 6 2 13 -4 8 -6 18 -7 23
-3 4 4 2 -1 -5 -10 -7 -10 -17 -15 -22 -12 -5 3 -12 -2 -15 -11 -4 -9 -13 -14
-20 -11 -8 3 -14 1 -14 -4 0 -5 -11 -12 -25 -16 -14 -3 -25 -10 -25 -15 0 -5
-7 -9 -15 -9 -8 0 -15 -5 -15 -11 0 -5 -5 -7 -11 -4 -5 4 -18 0 -27 -8 -15
-13 -139 -82 -234 -129 -20 -10 -40 -22 -43 -28 -4 -6 -11 -8 -16 -5 -5 4 -9
3 -9 -2 0 -9 -61 -39 -72 -35 -5 1 -8 -3 -8 -9 0 -5 -4 -7 -10 -4 -5 3 -10 2
-10 -3 0 -5 -24 -22 -52 -37 -29 -15 -91 -47 -138 -72 -47 -25 -109 -58 -137
-73 -29 -15 -50 -30 -46 -33 3 -4 2 -7 -4 -7 -5 0 -9 -28 -9 -65 0 -36 3 -65
7 -65 3 0 6 -28 7 -62 1 -91 9 -185 18 -199 4 -8 3 -9 -5 -5 -9 6 -10 0 -5
-20 4 -15 8 -39 8 -53 1 -15 6 -29 11 -33 7 -5 7 -8 0 -8 -11 0 -11 -29 -1
-110 9 -67 15 -90 24 -89 4 1 10 0 15 -1 4 -1 10 -3 15 -4 4 -1 18 -8 30 -15
13 -7 26 -10 29 -7 3 3 18 -3 33 -14 16 -11 35 -20 43 -20 9 0 19 -5 22 -10 4
-6 11 -8 16 -5 5 4 9 1 9 -5 0 -6 4 -9 9 -5 5 3 12 1 16 -5 4 -6 11 -8 16 -5
5 4 9 1 9 -6 0 -7 3 -9 7 -6 3 4 12 2 19 -4 10 -8 19 -4 35 15 13 14 26 26 31
26 14 0 58 47 51 54 -4 3 -2 6 4 6 6 0 49 38 96 85 47 47 88 85 92 85 3 0 28
23 55 50 51 53 67 60 77 35 3 -9 23 -33 43 -53 l38 -37 -65 -60 c-87 -80 -232
-218 -358 -340 -124 -120 -131 -126 -139 -118 -3 4 -6 2 -6 -4 0 -10 -66 -82
-75 -83 -3 0 -5 -2 -5 -5 -1 -9 -73 -75 -82 -75 -5 0 -7 -3 -5 -7 4 -9 -39
-53 -50 -51 -3 0 -32 -25 -63 -56 -32 -31 -55 -56 -51 -56 3 0 1 -4 -5 -8 -29
-18 -120 -101 -201 -183 -48 -49 -93 -89 -99 -89 -7 0 -14 -7 -18 -15 -6 -17
19 -21 29 -4 7 10 42 26 59 27 5 0 12 5 15 10 3 5 35 25 71 44 36 19 82 44
103 56 20 12 37 18 37 14 0 -4 4 -2 8 3 4 6 23 18 42 27 50 25 94 52 98 61 2
4 8 4 14 1 6 -4 13 -3 17 2 8 11 57 40 94 55 15 6 27 15 27 21 0 5 4 7 9 4 5
-3 25 6 46 19 20 14 42 27 48 28 7 1 14 4 17 7 3 3 28 16 55 30 28 14 52 28
55 32 8 10 144 72 152 70 5 -1 8 2 8 8 0 12 55 41 64 33 3 -4 6 -1 6 5 0 7 7
12 15 12 8 0 15 5 15 11 0 5 4 8 9 5 5 -4 11 -2 13 2 1 5 37 25 78 46 88 44
113 58 121 69 3 5 8 8 10 8 12 -2 49 13 49 19 0 4 12 11 27 15 15 3 41 16 57
28 17 12 33 22 36 22 3 1 25 12 49 25 24 14 57 32 73 41 42 22 45 31 41 117
-2 42 -5 145 -7 228 -1 83 -5 155 -8 160 -4 5 -6 50 -6 99 -1 177 3 162 -39
164 -21 0 -74 6 -118 11 -179 23 -171 23 -217 -18 -23 -20 -104 -98 -180 -172
-76 -74 -142 -136 -147 -138 -5 -2 -15 3 -22 10 -8 8 -29 24 -46 37 -18 12
-33 28 -33 35 0 7 29 41 65 75 36 35 65 67 65 72 0 5 3 8 8 7 6 -2 29 21 144
143 14 16 24 29 22 29 -3 0 16 18 41 40 25 22 44 40 42 40 -2 0 26 30 62 68
36 37 68 66 70 65 2 -1 20 19 40 45 21 26 54 61 74 79 20 18 37 36 38 40 0 4
28 33 62 63 34 30 61 57 59 60 -1 3 64 73 145 155 82 83 161 165 176 183 l29
32 -26 0 c-15 0 -25 -5 -23 -12z"/>
<path d="M1774 2452 c-6 -4 -20 -26 -31 -48 l-20 -41 21 5 c12 2 32 14 45 26
13 11 20 14 16 6 -6 -10 -1 -8 13 4 12 10 19 23 16 28 -3 5 -9 7 -12 4 -3 -3
-13 0 -21 8 -9 8 -21 12 -27 8z"/>
<path d="M689 2403 c-35 -20 -67 -41 -71 -47 -5 -7 -8 -7 -8 -1 0 6 -5 2 -11
-7 -5 -10 -14 -18 -20 -18 -10 0 -26 -11 -64 -46 -13 -12 -25 -20 -27 -18 -5
4 -144 -140 -183 -190 -16 -21 -36 -44 -42 -51 -7 -8 -13 -18 -13 -24 0 -6 -3
-11 -7 -11 -5 0 -13 -10 -19 -23 -5 -12 -25 -48 -42 -79 -18 -32 -29 -58 -25
-58 4 0 2 -4 -4 -8 -7 -4 -15 -22 -19 -39 -5 -27 -3 -32 28 -43 18 -7 36 -13
40 -14 3 -1 10 -4 14 -8 4 -5 16 -8 26 -8 10 0 18 -4 18 -10 0 -5 7 -7 15 -4
8 4 15 1 15 -7 0 -7 3 -9 6 -6 4 3 14 2 24 -3 14 -8 21 0 42 48 25 59 106 187
142 227 88 97 166 169 186 172 8 1 19 8 25 15 11 14 36 30 94 60 33 17 54 58
30 58 -6 0 -9 6 -6 14 3 8 3 16 -1 18 -8 4 -38 64 -47 96 -3 12 -11 22 -16 22
-6 0 -8 4 -4 9 14 23 -16 17 -76 -16z"/>
<path d="M1995 2226 c-95 -98 -93 -92 -60 -126 16 -17 35 -30 42 -30 7 0 13
-4 13 -8 0 -5 27 -37 60 -72 33 -35 60 -69 60 -77 0 -7 4 -13 9 -13 7 0 94
-135 103 -161 2 -4 27 0 55 10 29 10 50 21 46 24 -3 4 0 7 7 7 25 0 100 32
100 43 0 16 -42 101 -54 109 -6 4 -7 8 -3 8 4 0 3 6 -3 13 -5 6 -36 48 -68 92
-53 72 -175 205 -188 205 -3 0 -14 9 -26 20 -12 11 -24 20 -27 19 -3 0 -33
-29 -66 -63z"/>
<path d="M2415 1759 c-4 -6 -13 -8 -21 -5 -8 3 -14 2 -14 -2 0 -10 -51 -32
-61 -26 -5 3 -9 1 -9 -3 0 -5 -16 -15 -35 -22 -34 -12 -35 -13 -21 -44 7 -18
14 -35 14 -39 1 -5 3 -10 3 -13 1 -3 3 -9 4 -15 1 -5 3 -11 5 -12 4 -5 12 -44
15 -68 1 -14 7 -36 13 -50 5 -14 6 -26 2 -28 -9 -4 0 -52 10 -52 5 0 5 -13 0
-28 -4 -16 -4 -36 2 -45 5 -10 5 -17 1 -17 -4 0 -9 -37 -11 -82 -2 -46 -6 -85
-10 -88 -4 -3 -8 -21 -10 -40 -1 -19 -5 -42 -9 -50 -8 -19 -8 -19 -18 -54 -8
-28 8 -51 27 -40 4 3 8 0 8 -6 0 -6 5 -8 10 -5 6 3 10 1 10 -4 0 -6 3 -10 8
-9 12 4 101 -26 97 -32 -2 -4 9 -6 25 -6 26 0 30 4 45 60 9 34 19 68 22 76 5
14 8 30 18 95 3 17 6 57 8 90 1 33 5 65 8 70 3 6 4 26 2 45 -1 19 -5 62 -7 95
-5 68 -9 85 -19 102 -4 6 -3 15 3 18 8 5 7 11 -1 21 -6 8 -8 14 -3 14 4 0 3 5
-4 12 -7 7 -12 22 -12 34 0 13 -4 25 -9 28 -5 3 -7 15 -4 26 3 12 0 20 -6 20
-7 0 -9 4 -6 10 3 5 -1 22 -9 38 -8 16 -12 32 -9 36 4 3 -5 6 -20 6 -14 0 -29
-5 -32 -11z"/>
<path d="M99 1707 c-8 -24 -22 -93 -23 -109 0 -10 -4 -18 -9 -18 -5 0 -7 -6
-4 -14 3 -7 0 -19 -6 -25 -6 -6 -7 -11 -2 -11 6 0 3 -5 -5 -10 -11 -7 -11 -10
-2 -10 9 0 10 -5 4 -17 -6 -10 -9 -39 -8 -65 1 -27 -1 -48 -4 -48 -3 0 -6 -34
-6 -75 -1 -41 2 -75 5 -75 3 0 7 -30 7 -68 1 -37 14 -112 28 -167 15 -55 28
-104 29 -110 2 -5 8 -20 15 -32 7 -12 12 -29 12 -37 0 -10 9 -16 25 -16 14 0
25 4 25 8 0 4 20 14 45 21 25 7 45 16 45 20 0 4 20 13 45 20 44 13 44 14 32
40 -8 14 -22 53 -32 86 -10 33 -20 67 -23 75 -3 8 -6 26 -7 40 -1 14 -3 25 -4
25 -9 0 -20 236 -12 250 3 6 7 26 7 45 2 38 9 72 26 135 17 59 17 65 7 65 -6
0 -7 5 -4 10 4 6 3 9 -2 8 -14 -4 -113 26 -113 34 0 4 -8 8 -18 8 -10 0 -22 3
-26 7 -6 7 -45 15 -47 10z"/>
<path d="M2243 903 c-7 -3 -13 -13 -13 -23 0 -10 -3 -20 -7 -22 -5 -1 -16 -19
-25 -38 -23 -44 -41 -73 -51 -81 -5 -3 -9 -10 -10 -15 -2 -11 -23 -38 -57 -73
-13 -14 -22 -27 -20 -27 3 -1 -16 -24 -42 -52 -26 -27 -49 -48 -51 -46 -2 3
-15 -7 -28 -21 -13 -13 -30 -25 -36 -25 -7 0 -13 -4 -13 -9 0 -5 -13 -14 -29
-21 -16 -6 -32 -18 -35 -27 -3 -8 -10 -11 -16 -8 -5 3 -10 1 -10 -5 0 -7 -6
-10 -12 -8 -7 3 -21 -3 -30 -12 -15 -14 -16 -22 -7 -48 6 -18 15 -32 20 -32 5
0 9 -8 9 -18 0 -10 9 -35 20 -57 11 -22 20 -46 20 -53 0 -17 47 -8 71 14 8 8
19 14 23 14 11 0 121 77 161 112 19 16 35 28 35 24 0 -7 118 114 160 165 43
52 102 139 95 139 -3 0 4 9 15 20 12 12 18 25 15 30 -3 5 -1 11 5 15 10 6 50
87 50 102 0 5 -25 17 -55 28 -30 10 -55 23 -55 29 0 6 -5 4 -10 -4 -6 -10 -10
-11 -10 -2 0 6 -3 11 -7 10 -10 -2 -46 14 -53 22 -3 4 -11 5 -17 3z"/>
<path d="M341 827 c-6 -6 -11 -8 -11 -4 0 4 -27 -6 -60 -23 -33 -16 -66 -30
-73 -30 -21 0 -41 -26 -27 -35 6 -3 8 -11 5 -16 -4 -5 -2 -9 3 -9 5 0 17 -18
27 -40 10 -22 22 -40 27 -40 5 0 6 -4 3 -10 -3 -5 -1 -10 4 -10 6 0 11 -5 11
-12 0 -6 7 -18 15 -27 8 -9 42 -49 75 -88 34 -40 65 -73 70 -73 5 0 12 -9 15
-20 3 -11 10 -20 16 -20 8 0 17 -6 71 -53 12 -9 24 -17 28 -17 4 0 44 36 89
79 l83 80 -28 18 c-77 50 -213 191 -206 214 1 5 -5 9 -13 9 -8 0 -15 7 -15 15
0 8 -4 15 -10 15 -5 0 -10 5 -10 10 0 16 -50 88 -65 93 -7 3 -18 0 -24 -6z"/>
<path d="M1680 350 c0 -7 -6 -10 -14 -7 -7 3 -19 0 -25 -6 -6 -6 -11 -7 -11
-3 0 5 -6 4 -13 -2 -7 -6 -24 -13 -37 -15 -14 -3 -45 -10 -70 -17 -25 -7 -66
-13 -91 -15 -26 -1 -51 -5 -56 -8 -4 -2 -17 -1 -27 2 -11 4 -38 4 -61 1 -23
-4 -52 -3 -64 2 -16 5 -20 4 -15 -4 4 -7 3 -8 -4 -4 -7 4 -36 11 -65 17 -28 5
-59 11 -67 13 -8 3 -28 5 -43 5 -16 1 -26 5 -23 9 2 4 -6 9 -19 10 -21 1 -34
-14 -40 -48 0 -3 -6 -15 -13 -27 -7 -13 -10 -23 -6 -23 3 0 1 -7 -6 -15 -7 -9
-10 -18 -7 -21 3 -4 0 -13 -8 -21 -8 -8 -15 -25 -15 -37 0 -19 8 -26 48 -36
26 -7 52 -17 58 -22 7 -5 16 -8 20 -6 5 1 29 -1 54 -5 25 -4 63 -10 85 -13 43
-7 229 -7 310 -1 30 2 49 8 48 15 -2 8 4 9 22 2 15 -6 26 -6 30 1 4 5 12 9 18
7 18 -3 61 13 69 26 6 8 8 8 8 0 0 -7 11 -9 25 -6 14 2 25 8 25 13 0 5 3 8 8
7 4 0 15 2 25 5 9 4 24 9 33 12 17 5 15 46 -4 81 -6 10 -22 45 -36 76 -25 55
-46 81 -46 58z"/>
<path d="M855 240 c-4 -6 -11 -7 -17 -4 -7 4 -8 2 -4 -4 4 -7 1 -12 -6 -12 -8
0 -30 -9 -51 -19 l-37 -19 28 -18 c48 -33 55 -33 74 4 9 19 15 39 12 43 -3 5
-1 9 4 9 5 0 9 7 9 15 0 18 -3 19 -12 5z"/>
</g>
</svg>
